<svg xmlns="http://www.w3.org/2000/svg" version="1.1" xmlns:xlink="http://www.w3.org/1999/xlink" viewBox="0 0 200 200"><rect width="200" height="200" fill="url('#gradient')"></rect><defs><linearGradient id="gradient" gradientTransform="rotate(45 0.5 0.5)"><stop offset="0%" stop-color="#472027"></stop><stop offset="100%" stop-color="#192025"></stop></linearGradient></defs><g><g fill="#f3bd7d" transform="matrix(1.9007940600185624,0,0,1.9007940600185624,8.721406223621031,114.06821945051169)" stroke="#c06a3e" stroke-width="0.2"><path d="M9.17-4.81L12.58-4.81Q12.51-3.33 11.78-2.19Q11.04-1.05 9.72-0.43Q8.40 0.20 6.70 0.20L6.70 0.20Q3.90 0.20 2.29-1.63Q0.67-3.46 0.67-6.79L0.67-6.79L0.67-7.49Q0.67-9.58 1.40-11.15Q2.13-12.71 3.50-13.57Q4.86-14.42 6.66-14.42L6.66-14.42Q9.25-14.42 10.82-13.06Q12.39-11.70 12.61-9.31L12.61-9.31L9.19-9.31Q9.15-10.61 8.54-11.17Q7.92-11.74 6.66-11.74L6.66-11.74Q5.38-11.74 4.79-10.78Q4.19-9.82 4.16-7.72L4.16-7.72L4.16-6.72Q4.16-4.44 4.73-3.47Q5.30-2.49 6.70-2.49L6.70-2.49Q7.88-2.49 8.51-3.05Q9.13-3.60 9.17-4.81L9.17-4.81ZM23.29 0L20 0Q19.82-0.32 19.69-0.95L19.69-0.95Q18.78 0.20 17.15 0.20L17.15 0.20Q15.65 0.20 14.61-0.71Q13.56-1.61 13.56-2.98L13.56-2.98Q13.56-4.70 14.83-5.58Q16.10-6.46 18.53-6.46L18.53-6.46L19.54-6.46L19.54-7.01Q19.54-8.47 18.28-8.47L18.28-8.47Q17.11-8.47 17.11-7.31L17.11-7.31L13.82-7.31Q13.82-8.85 15.12-9.80Q16.43-10.76 18.45-10.76Q20.47-10.76 21.64-9.78Q22.81-8.79 22.84-7.07L22.84-7.07L22.84-2.39Q22.86-0.94 23.29-0.17L23.29-0.17L23.29 0ZM17.94-2.15L17.94-2.15Q18.55-2.15 18.96-2.41Q19.37-2.68 19.54-3.01L19.54-3.01L19.54-4.70L18.58-4.70Q16.87-4.70 16.87-3.15L16.87-3.15Q16.87-2.71 17.17-2.43Q17.47-2.15 17.94-2.15ZM30.20-2.97L30.20-2.97Q30.20-3.39 29.76-3.64Q29.32-3.90 28.09-4.17Q26.86-4.44 26.05-4.89Q25.25-5.33 24.83-5.97Q24.41-6.60 24.41-7.42L24.41-7.42Q24.41-8.88 25.62-9.82Q26.82-10.76 28.76-10.76L28.76-10.76Q30.85-10.76 32.12-9.81Q33.39-8.87 33.39-7.32L33.39-7.32L30.09-7.32Q30.09-8.59 28.75-8.59L28.75-8.59Q28.23-8.59 27.88-8.31Q27.53-8.02 27.53-7.59L27.53-7.59Q27.53-7.15 27.96-6.88Q28.39-6.60 29.33-6.43Q30.27-6.25 30.99-6.01L30.99-6.01Q33.37-5.19 33.37-3.07L33.37-3.07Q33.37-1.62 32.08-0.71Q30.80 0.20 28.76 0.20L28.76 0.20Q27.40 0.20 26.34-0.29Q25.27-0.78 24.68-1.62Q24.08-2.46 24.08-3.39L24.08-3.39L27.16-3.39Q27.18-2.66 27.65-2.32Q28.12-1.98 28.85-1.98L28.85-1.98Q29.52-1.98 29.86-2.26Q30.20-2.53 30.20-2.97ZM35.45-13.19L38.74-13.19L38.74-10.57L40.48-10.57L40.48-8.28L38.74-8.28L38.74-3.45Q38.74-2.85 38.96-2.62Q39.17-2.38 39.80-2.38L39.80-2.38Q40.29-2.38 40.63-2.44L40.63-2.44L40.63-0.09Q39.74 0.20 38.77 0.20L38.77 0.20Q37.07 0.20 36.26-0.61Q35.45-1.41 35.45-3.04L35.45-3.04L35.45-8.28L34.10-8.28L34.10-10.57L35.45-10.57L35.45-13.19ZM48.22-10.64L48.16-7.59L47.08-7.67Q45.53-7.67 45.09-6.69L45.09-6.69L45.09 0L41.80 0L41.80-10.57L44.88-10.57L44.99-9.21Q45.82-10.76 47.30-10.76L47.30-10.76Q47.83-10.76 48.22-10.64L48.22-10.64ZM48.59-4.82L48.58-5.38Q48.58-6.96 49.20-8.20Q49.81-9.43 50.97-10.10Q52.12-10.76 53.67-10.76L53.67-10.76Q56.04-10.76 57.41-9.29Q58.78-7.82 58.78-5.29L58.78-5.29L58.78-5.18Q58.78-2.71 57.41-1.25Q56.04 0.20 53.69 0.20L53.69 0.20Q51.44 0.20 50.07-1.16Q48.70-2.51 48.59-4.82L48.59-4.82ZM51.88-5.77L51.88-5.18Q51.88-3.71 52.33-3.03Q52.79-2.34 53.69-2.34L53.69-2.34Q55.45-2.34 55.49-5.05L55.49-5.05L55.49-5.38Q55.49-8.22 53.67-8.22L53.67-8.22Q52.02-8.22 51.88-5.77L51.88-5.77ZM72.27-14.22L72.27 0L68.86 0L68.86-5.94L63.81-5.94L63.81 0L60.38 0L60.38-14.22L63.81-14.22L63.81-8.57L68.86-8.57L68.86-14.22L72.27-14.22ZM80.67 0L80.58-1.14Q79.53 0.20 77.75 0.20L77.75 0.20Q76.02 0.20 75.12-0.82Q74.23-1.83 74.23-3.72L74.23-3.72L74.23-10.57L77.52-10.57L77.52-3.70Q77.52-2.34 78.84-2.34L78.84-2.34Q79.97-2.34 80.45-3.15L80.45-3.15L80.45-10.57L83.76-10.57L83.76 0L80.67 0ZM95.37-5.36L95.37-5.20Q95.37-2.60 94.30-1.20Q93.22 0.20 91.27 0.20L91.27 0.20Q89.66 0.20 88.67-1.08L88.67-1.08L88.54 0L85.59 0L85.59-15L88.88-15L88.88-9.72Q89.79-10.76 91.25-10.76L91.25-10.76Q93.22-10.76 94.30-9.35Q95.37-7.93 95.37-5.36L95.37-5.36ZM92.07-5.40L92.07-5.40Q92.07-6.92 91.67-7.57Q91.26-8.22 90.42-8.22L90.42-8.22Q89.31-8.22 88.88-7.37L88.88-7.37L88.88-3.17Q89.30-2.33 90.44-2.33L90.44-2.33Q91.60-2.33 91.91-3.47L91.91-3.47Q92.07-4.02 92.07-5.40Z"></path></g></g></svg>